<?xml version="1.0" encoding="utf-8"?>
<!-- Generator: Adobe Illustrator 16.0.0, SVG Export Plug-In . SVG Version: 6.00 Build 0)  -->
<!DOCTYPE svg PUBLIC "-//W3C//DTD SVG 1.1//EN" "http://www.w3.org/Graphics/SVG/1.1/DTD/svg11.dtd">
<svg version="1.1" id="Layer_1" xmlns="http://www.w3.org/2000/svg" xmlns:xlink="http://www.w3.org/1999/xlink" x="0px" y="0px"
	 width="248.667px" height="84.667px" viewBox="0 0 248.667 84.667" enable-background="new 0 0 248.667 84.667"
	 xml:space="preserve">
<path fill="#FFFFFF" d="M31.167,23c-3.223,0-6.18,0.504-8.501,1.341c-0.051,0.575-0.074,1.149-0.098,1.723
	c0.159,1.142,0.453,2.478,0.621,3.419c0.269,1.509,0.525,3.029,0.678,4.557c2.106,0.604,4.607,0.96,7.301,0.96
	c7.456,0,13.5-2.687,13.5-6S38.623,23,31.167,23z"/>
<path fill="#FFFFFF" d="M36.167,29c-4.934,0-9.389,0.793-12.703,2.07C23.734,32.703,23.957,34.347,24,36
	c0.038,1.47-0.455,2.6-1.235,3.399c-0.02,0.736-0.048,1.474-0.108,2.212C26.033,43.078,30.828,44,36.167,44
	c10.217,0,18.5-3.358,18.5-7.5S46.384,29,36.167,29z"/>
<ellipse fill="#FFFFFF" cx="-303.833" cy="-3" rx="5.5" ry="0"/>
<line stroke="#FFFFFF" stroke-width="3" stroke-miterlimit="10" x1="84" y1="14.667" x2="239" y2="15"/>
<line stroke="#FFFFFF" stroke-width="3" stroke-miterlimit="10" x1="84" y1="68.667" x2="239" y2="68.667"/>
<rect x="85" y="19.667" fill="none" width="154" height="44.333"/>
<text transform="matrix(1 0 0 1 127.2075 34.3872)"><tspan x="0" y="0" font-family="'RageItalic'" font-size="23">TO THE </tspan><tspan x="-24.297" y="27.6" font-family="'RageItalic'" font-size="23">LAST DROP</tspan></text>
<line fill="none" stroke="#231F20" stroke-miterlimit="10" x1="89" y1="11.333" x2="239" y2="9.667"/>
<line fill="none" stroke="#231F20" stroke-miterlimit="10" x1="89.324" y1="70.3" x2="239.008" y2="69.942"/>
<path fill="none" stroke="#231F20" stroke-miterlimit="10" d="M24.479,31.157C22.165,22.191,14.293,16.484,6.88,18.397"/>
<path fill="none" stroke="#231F20" stroke-miterlimit="10" d="M6.88,18.397c-3.792,15.72,7.768,31.971,25.848,36.333"/>
<g>
	<g id="XMLID_1_">
		<g>
			<path fill="#231F20" d="M45.306,66.049c7.33,0.79,12.84,3.01,12.7,5.27l-13.58-4.95l0.87-0.319
				C45.306,66.049,45.306,66.049,45.306,66.049z"/>
			<polygon fill="#231F20" points="58.006,71.318 30.836,71.318 44.426,66.368 			"/>
			<path fill="#231F20" d="M45.836,65.849l-0.53,0.2c0,0,0,0-0.01,0c-0.29-0.04-0.58-0.061-0.87-0.09
				C44.896,65.919,45.366,65.879,45.836,65.849z"/>
			<path fill="#231F20" d="M45.296,66.049l-0.87,0.319l-0.88-0.319c0.29-0.04,0.59-0.061,0.88-0.09
				C44.716,65.988,45.006,66.009,45.296,66.049z"/>
			<path fill="#231F20" d="M44.426,66.368l-13.59,4.95c-0.14-2.26,5.37-4.479,12.7-5.27h0.01L44.426,66.368z"/>
			<path fill="#231F20" d="M44.426,65.959c-0.29,0.029-0.59,0.05-0.88,0.09h-0.01l-0.45-0.17c0.02-0.011,0.04-0.021,0.07-0.021
				C43.586,65.889,44.006,65.919,44.426,65.959z"/>
			<path fill="#231F20" d="M43.156,65.858c-0.03,0-0.05,0.01-0.07,0.021h-0.01l-0.07-0.03
				C43.056,65.849,43.106,65.858,43.156,65.858z"/>
			<path d="M47.167,65.688c-0.48,0-0.92,0.061-1.33,0.16c-0.41-0.1-0.85-0.16-1.34-0.16c-0.49,0-0.93,0.061-1.34,0.17
				c-0.05,0-0.1-0.01-0.15-0.01l0.07,0.03c-0.15,0.04-0.29,0.08-0.42,0.13c-0.13-0.07-0.26-0.141-0.38-0.221
				c-10.13-1.77-18.55-13.97-21.89-30.54c-0.15-1.59-0.42-3.18-0.7-4.75c-0.16-0.93-0.46-2.26-0.62-3.4
				c0.03-0.58,0.05-1.16,0.1-1.75c0.04-0.46-0.01-0.89-0.11-1.31c-0.01-0.41-0.07-0.82-0.15-1.21c0-0.01,0-0.01,0.01-0.02
				c-0.05-1.14-0.08-2.29-0.08-3.46c0-3.86,11.64-7,26-7s26,3.14,26,7c0,23.51-9.66,42.91-22.24,46.18
				c-0.16,0.09-0.33,0.16-0.49,0.24C47.806,65.719,47.497,65.688,47.167,65.688z"/>
		</g>
		<g>
			<path fill="none" stroke="#231F20" stroke-miterlimit="10" d="M44.426,65.959c0.47-0.04,0.94-0.08,1.41-0.11"/>
			<path fill="none" stroke="#231F20" stroke-miterlimit="10" d="M30.836,71.318c-0.14-2.26,5.37-4.479,12.7-5.27"/>
			<path fill="none" stroke="#231F20" stroke-miterlimit="10" d="M43.006,65.849c0.05,0,0.1,0.01,0.15,0.01
				c0.43,0.03,0.85,0.061,1.27,0.101c0.29,0.029,0.58,0.05,0.87,0.09c0.01,0,0.01,0,0.01,0c7.33,0.79,12.84,3.01,12.7,5.27"/>
			<line fill="none" stroke="#231F20" stroke-miterlimit="10" x1="30.836" y1="71.318" x2="58.006" y2="71.318"/>
		</g>
	</g>
</g>
<path fill="#231F20" stroke="#231F20" stroke-miterlimit="10" d="M174.667,171.334"/>
<rect x="99.167" y="71.788" fill="none" width="125.667" height="21"/>
<text transform="matrix(1 0 0 1 130.7134 79.4678)" font-family="'RageItalic'" font-size="12">Coffee Shoppee</text>
<ellipse fill="#BEBEBE" stroke="#231F20" stroke-miterlimit="10" cx="44.837" cy="18.028" rx="26.339" ry="8.501"/>
<ellipse fill="#682E12" stroke="#231F20" stroke-miterlimit="10" cx="44.836" cy="19.696" rx="23.154" ry="7.404"/>
</svg>
